<svg width="149" height="167" viewBox="0 0 149 167" fill="none" xmlns="http://www.w3.org/2000/svg">
<path d="M68.6785 1.26837C63.6755 3.66415 60.857 8.87849 61.5616 14.3747L61.9139 17.2637L42.1135 28.6085L22.2426 40.0236L20.2696 38.3325C16.1827 34.8798 9.34769 34.6684 5.04938 37.9097C0.539678 41.2215 -1.22193 48.2679 1.17385 53.2709C2.58314 56.2304 5.96542 59.1194 8.57259 59.6831L10.616 60.0355V83.2182V106.401L8.00888 107.458C0.891998 110.417 -1.99703 117.957 1.45571 124.722C3.71056 129.161 6.59959 130.711 12.4481 130.711C16.7464 130.711 17.7329 130.429 19.8469 128.879L22.3131 126.976L42.1135 138.392L61.9139 149.736L61.5616 152.696C61.0684 156.571 62.83 161.433 65.6485 163.759C70.2287 167.634 77.2751 167.775 81.503 163.97C84.9557 161.011 86.0127 158.544 86.0127 153.823L86.0831 149.736L105.884 138.321L125.684 126.976L128.15 128.808C130.335 130.429 131.321 130.711 135.619 130.711C141.468 130.711 144.357 129.161 146.612 124.722C150.065 117.957 147.176 110.417 140.059 107.458L137.451 106.401V83.2182V60.0355L139.706 59.6127C142.666 59.049 147.105 54.2574 147.739 51.016C148.796 45.1675 146.26 39.3895 141.468 36.9232C137.24 34.6684 130.828 35.5139 127.234 38.8258C125.825 40.0941 125.402 39.8827 106.024 28.6789L86.1536 17.2637L85.8717 12.3312C85.7308 8.80803 85.2376 6.83504 84.2511 5.56668C80.5869 0.634186 73.9633 -1.19788 68.6785 1.26837ZM78.3321 5.84854C82.6304 8.73756 83.2646 14.6566 79.6004 18.2502C75.9363 21.9848 70.1582 21.3506 67.1987 16.9819C64.3802 12.754 65.6485 7.53967 70.0878 5.35529C73.1882 3.80508 75.584 3.946 78.3321 5.84854ZM70.0173 24.3101L71.9198 24.8034V37.9802V51.0865L60.5751 57.4283C54.3038 60.881 48.5962 64.0519 47.8916 64.4042C46.8346 64.8975 44.2274 63.6291 35.6308 58.4148L24.7089 51.7912V48.0566C24.7089 46.0836 24.7089 44.181 24.7793 43.8287C24.7793 43.5469 33.5874 38.262 44.2979 31.9907L63.8165 20.7165L65.9304 22.2667C67.1283 23.1122 68.8899 24.0988 70.0173 24.3101ZM105.32 32.9772L123.5 43.5469V47.9861L123.57 52.4958L112.225 59.049L100.951 65.6021L88.5494 58.4148L76.1477 51.2274V38.1211V24.9443L78.5435 24.0988C79.8118 23.6055 81.4325 22.619 82.1371 21.8439C83.6169 20.2232 81.2211 19.0253 105.32 32.9772ZM15.8304 40.5169C19.9878 42.4899 21.6789 47.7747 19.4241 52.073C18.4376 54.046 14.6325 56.3713 12.3777 56.3713C10.1228 56.3713 6.31774 54.046 5.33124 52.073C3.71056 48.9726 3.99242 45.5198 6.17681 42.9831C9.1363 39.3895 11.9549 38.6848 15.8304 40.5169ZM138.438 40.4464C145.203 43.265 145.625 52.2139 139.143 55.3144C136.254 56.6532 135.056 56.6532 132.096 55.2439C126.107 52.4253 126.177 43.4764 132.096 40.5874C134.774 39.2485 135.479 39.2485 138.438 40.4464ZM84.7443 61.022C90.6633 64.7566 95.5958 67.857 95.7367 67.9979C95.8777 68.1388 91.0156 71.2393 84.9557 74.9034L73.8928 81.6679L62.9004 74.9034C56.7701 71.2393 51.7671 68.0684 51.6262 67.9979C51.4148 67.857 73.1882 54.3983 73.8224 54.2574C73.8928 54.2574 78.8253 57.2874 84.7443 61.022ZM33.1646 61.7971L43.3819 67.9979L43.5933 82.8658L43.7342 97.8042L32.6713 104.216C22.9473 109.783 21.4675 110.488 20.481 109.572C19.8469 109.008 18.2262 108.092 16.7464 107.458L14.1393 106.401V83.5V60.6696L17.1692 59.3308C18.7899 58.6262 20.5515 57.4987 21.1152 56.8646C21.6085 56.1599 22.2426 55.6667 22.5245 55.6667C22.7359 55.6667 27.5979 58.4148 33.1646 61.7971ZM128.714 58.1329C130.123 59.1194 131.744 59.8945 132.237 59.8945C133.083 59.8945 133.224 64.0519 133.224 83.5C133.224 104.992 133.153 107.105 132.026 107.105C131.392 107.105 129.841 107.951 128.503 108.938L126.107 110.77L117.158 105.626C112.225 102.807 107.011 99.7772 105.602 98.8612L102.924 97.2405V83.2886V69.3367L114.057 62.9245C120.117 59.3308 125.332 56.4418 125.614 56.3713C125.895 56.3713 127.305 57.1464 128.714 58.1329ZM60.2933 78.0038L71.9198 84.9093V98.5089V112.108L68.608 110.135C66.7055 109.078 61.4207 105.978 56.7701 103.23L48.3144 98.227L48.103 84.6979C48.0325 77.2287 48.103 71.1688 48.3144 71.1688C48.5258 71.1688 53.9515 74.2692 60.2933 78.0038ZM99.4009 84.7684V98.3679L93.2705 101.962C89.8177 103.935 84.6034 107.035 81.6439 108.797L76.1477 112.038V98.4384V84.9093L87.6333 78.0038C93.9047 74.2692 99.119 71.1688 99.2599 71.1688C99.3304 71.1688 99.4009 77.2992 99.4009 84.7684ZM58.884 108.938L71.9198 116.477V129.231V141.985L68.8194 143.254C67.0578 143.958 65.2962 144.945 64.8734 145.508C64.3097 146.213 60.0819 144.099 44.3684 134.939L24.5679 123.524L24.4975 118.662L24.427 113.8L34.9966 107.669C40.7747 104.287 45.5663 101.539 45.7072 101.468C45.7776 101.468 51.7671 104.851 58.884 108.938ZM116.312 109.995L123.711 114.222L123.57 118.873L123.5 123.524L103.558 135.009L83.6169 146.495L81.5734 144.733C80.5165 143.817 78.8253 142.831 77.8388 142.619L76.1477 142.197V129.302V116.407L88.9722 109.008L101.797 101.609L105.32 103.653C107.293 104.78 112.225 107.669 116.312 109.995ZM16.2532 111.686C20.6924 114.011 21.8903 120.353 18.5785 124.017C11.8844 131.345 0.75107 123.665 5.33124 114.857C7.30423 110.981 12.2367 109.572 16.2532 111.686ZM139.565 111.686C144.005 114.011 145.203 120.353 141.891 124.017C138.227 128.033 132.801 127.963 129.419 123.946C123.711 117.182 131.673 107.599 139.565 111.686ZM79.4595 148.679C80.6574 149.877 81.7848 151.639 81.9962 152.696C83.2646 159.46 75.6544 165.027 69.8059 161.645C65.9304 159.319 64.5916 154.81 66.635 150.793C68.1852 147.834 70.3696 146.565 74.0338 146.565C76.7114 146.565 77.6979 146.918 79.4595 148.679Z" fill="#E24717"/>
</svg>
