<svg width="96" height="96" viewBox="0 0 96 96" fill="none" xmlns="http://www.w3.org/2000/svg">
<g id="Group 335">
<rect id="Rectangle 198" width="96" height="96" rx="20" fill="#30B6ED"/>
<path id="Vector" d="M17.5604 67.2335C17.7875 68.213 18.2675 69.1158 18.9523 69.852C19.6372 70.5882 20.5031 71.132 21.4636 71.4293L22.0486 74H21.9999V80.5H73.9999V74H30.7196C30.7648 73.6998 30.7571 73.394 30.6969 73.0965L30.0599 70.2918L63.7201 62.6348L64.3571 65.4395C64.5268 66.1836 64.985 66.8299 65.631 67.2364C66.2769 67.6429 67.0579 67.7763 67.8021 67.6073L70.6069 66.967C70.9755 66.8834 71.3241 66.7279 71.6326 66.5094C71.9411 66.291 72.2036 66.0138 72.4049 65.6939C72.6062 65.3739 72.7425 65.0174 72.806 64.6447C72.8694 64.2721 72.8587 63.8906 72.7746 63.522L71.9589 59.9373C73.4084 58.5853 74.1364 56.5378 73.6651 54.4675L71.7476 46.05C71.5149 45.0359 71.0101 44.1045 70.2874 43.356C69.5646 42.6075 68.6515 42.0703 67.6461 41.8023L60.9869 30.8238C60.0063 29.2093 58.5428 27.9442 56.8035 27.2076C55.0642 26.4709 53.1372 26.3 51.2954 26.719L25.7244 32.5365C23.8808 32.9546 22.2157 33.9425 20.965 35.36C19.7143 36.7775 18.9416 38.5527 18.7564 40.434L17.4986 53.213C16.7097 53.8904 16.1204 54.7699 15.794 55.7572C15.4676 56.7444 15.4165 57.8019 15.6461 58.816L17.5604 67.2335ZM27.3754 64.9975C26.8229 65.1234 26.251 65.1393 25.6924 65.0442C25.1338 64.9491 24.5994 64.7448 24.1197 64.4432C23.64 64.1416 23.2244 63.7484 22.8966 63.2861C22.5689 62.8239 22.3354 62.3016 22.2095 61.7491C22.0836 61.1966 22.0677 60.6248 22.1628 60.0662C22.258 59.5075 22.4622 58.9731 22.7638 58.4934C23.0654 58.0137 23.4586 57.5982 23.9209 57.2704C24.3831 56.9427 24.9054 56.7092 25.4579 56.5833C26.5737 56.329 27.7448 56.5284 28.7136 57.1376C29.6824 57.7467 30.3695 58.7158 30.6237 59.8316C30.878 60.9474 30.6786 62.1185 30.0694 63.0873C29.4603 64.0561 28.4912 64.7432 27.3754 64.9975ZM63.8469 56.7035C63.2849 56.858 62.6975 56.897 62.1201 56.8183C61.5427 56.7396 60.9871 56.5448 60.487 56.2456C59.9869 55.9464 59.5526 55.549 59.2102 55.0774C58.8678 54.6058 58.6245 54.0697 58.495 53.5016C58.3654 52.9334 58.3522 52.3448 58.4562 51.7714C58.5603 51.198 58.7794 50.6516 59.1003 50.1651C59.4212 49.6787 59.8373 49.2622 60.3236 48.941C60.8098 48.6197 61.356 48.4002 61.9294 48.2958C63.0232 48.0965 64.1516 48.327 65.0797 48.9393C66.0077 49.5515 66.6637 50.4982 66.9109 51.5822C67.1581 52.6661 66.9775 53.8037 66.4067 54.7578C65.8358 55.7118 64.9189 56.4088 63.8469 56.7035ZM27.1641 38.874L52.7384 33.0533C53.2508 32.936 53.7872 32.983 54.2714 33.1878C54.7556 33.3926 55.1631 33.7446 55.4359 34.194L60.5871 42.6863L58.7476 43.1055L26.0981 50.5383L24.2521 50.9575L25.2239 41.071C25.2752 40.5473 25.4904 40.0531 25.8387 39.6587C26.187 39.2643 26.6508 38.9897 27.1641 38.874ZM68.8161 22L64.2499 15.5L62.6249 25.25L70.7499 38.25L80.4999 41.5L73.9999 33.2483L80.4999 30.216L73.9999 27.1838L80.4999 15.5L68.8161 22Z" fill="white"/>
</g>
</svg>
