<svg width="84" height="84" viewBox="0 0 84 84" fill="none" xmlns="http://www.w3.org/2000/svg">
<path d="M4.24984 38.4041C4.4618 39.318 4.90959 40.1603 5.54858 40.8471C6.18757 41.5339 6.99544 42.0413 7.89165 42.3186L8.43747 44.7169H8.39198L8.74605 45.5333L10.1843 46.6995L15.7432 45.5333L16.5277 44.7169C16.5277 44.3671 16.3825 43.4785 16.3262 43.2009L15.9121 41.2573L47.3178 34.1138L47.9121 36.7304C48.0705 37.4246 48.4979 38.0276 49.1006 38.4068C49.7033 38.786 50.432 38.9105 51.1264 38.7528L53.7433 38.1555C54.0872 38.0775 54.4124 37.9324 54.7003 37.7286C54.9881 37.5248 55.233 37.2663 55.4208 36.9678C55.6087 36.6693 55.7358 36.3366 55.795 35.989C55.8542 35.6413 55.8443 35.2853 55.7658 34.9415L55.0047 31.5971C56.3571 30.3358 57.0364 28.4256 56.5967 26.4941L54.8076 18.6411C54.5905 17.6949 54.1195 16.826 53.4451 16.1277C52.7708 15.4294 51.9188 14.9282 50.9808 14.6781L44.7676 4.43576C43.8527 2.92959 42.4872 1.74932 40.8644 1.06205C39.2416 0.374777 37.4437 0.215318 35.7253 0.606245L11.867 6.03367C10.1469 6.42375 8.59331 7.34535 7.42641 8.66781C6.2595 9.99027 5.53854 11.6465 5.36573 13.4016L4.19223 25.3238C3.45619 25.9557 2.90634 26.7763 2.6018 27.6973C2.29726 28.6183 2.24956 29.605 2.46381 30.5511L4.24984 38.4041ZM13.4074 36.3181C12.8919 36.4355 12.3584 36.4503 11.8372 36.3616C11.316 36.2729 10.8174 36.0824 10.3698 35.8009C9.92223 35.5195 9.53448 35.1527 9.22869 34.7215C8.92289 34.2902 8.70504 33.803 8.58757 33.2875C8.47009 32.7721 8.4553 32.2385 8.54404 31.7174C8.63278 31.1962 8.8233 30.6977 9.10474 30.2501C9.38617 29.8026 9.75301 29.4149 10.1843 29.1091C10.6156 28.8033 11.1029 28.5855 11.6184 28.468C12.6594 28.2308 13.7521 28.4168 14.656 28.9852C15.5599 29.5535 16.201 30.4576 16.4382 31.4986C16.6755 32.5396 16.4894 33.6322 15.9211 34.536C15.3527 35.4398 14.4485 36.0808 13.4074 36.3181ZM47.436 28.5802C46.9118 28.7243 46.3637 28.7608 45.8249 28.6873C45.2862 28.6139 44.7678 28.4322 44.3012 28.153C43.8346 27.8739 43.4294 27.5031 43.11 27.0632C42.7905 26.6232 42.5635 26.123 42.4426 25.593C42.3217 25.0629 42.3094 24.5138 42.4065 23.9788C42.5035 23.4438 42.708 22.9341 43.0074 22.4802C43.3068 22.0264 43.6951 21.6379 44.1487 21.3382C44.6024 21.0384 45.112 20.8337 45.647 20.7362C46.6675 20.5503 47.7204 20.7654 48.5863 21.3366C49.4521 21.9078 50.0642 22.791 50.2948 23.8023C50.5255 24.8136 50.3569 25.8748 49.8244 26.7649C49.2918 27.655 48.4363 28.3053 47.436 28.5802ZM13.2103 11.9462L37.0716 6.51577C37.5497 6.40634 38.0502 6.45025 38.502 6.64129C38.9537 6.83232 39.3339 7.16077 39.5884 7.58003L44.3946 15.5029L42.6783 15.894L12.2157 22.8284L10.4934 23.2195L11.4 13.9959C11.448 13.5073 11.6487 13.0463 11.9737 12.6783C12.2987 12.3103 12.7314 12.0542 13.2103 11.9462Z" fill="#FF7D43"/>
<path d="M21.2571 44.6367C23.274 44.6367 24.7601 44.106 25.7155 43.0444C26.6709 41.9829 28.7143 41.4522 31.8458 41.4522C34.8712 41.4522 36.9284 41.9829 38.0175 43.0444C39.1067 44.106 40.6055 44.6367 42.5142 44.6367C44.5311 44.6367 46.0172 44.106 46.9726 43.0444C47.9279 41.9829 49.9714 41.4522 53.1029 41.4522C55.1729 41.4522 56.7121 41.7313 57.7205 42.2897C58.729 42.8481 59.6844 43.365 60.5867 43.8406C61.3828 44.2652 62.0993 44.8098 62.7363 45.4743C63.3732 46.1388 63.6916 46.9211 63.6916 47.8213C63.6916 48.7215 63.3732 49.4646 62.7363 50.0505C62.0993 50.6365 61.3563 50.8223 60.507 50.6078C58.8086 50.1832 57.5348 49.6132 56.6855 48.8977C55.8363 48.1822 54.6421 47.8234 53.1029 47.8213C51.1391 47.8213 49.6529 48.3521 48.6445 49.4136C47.636 50.4751 45.5926 51.0059 42.5142 51.0059C39.4357 51.0059 37.3796 50.4751 36.3456 49.4136C35.3117 48.3521 33.8118 47.8213 31.8458 47.8213C29.8289 47.8213 28.3428 48.3521 27.3874 49.4136C26.432 50.4751 24.3886 51.0059 21.2571 51.0059C18.1256 51.0059 16.0821 50.4751 15.1268 49.4136C14.1714 48.3521 12.6853 47.8213 10.6684 47.8213C9.12914 47.8213 7.93492 48.1801 7.0857 48.8977C6.23648 49.6153 4.96265 50.1853 3.26421 50.6078C2.41498 50.8201 1.65918 50.6344 0.996785 50.0505C0.334392 49.4667 0.00213403 48.7236 1.09813e-05 47.8213C-0.00211207 46.919 0.303608 46.1367 0.917171 45.4743C1.53073 44.8119 2.23346 44.2673 3.02536 43.8406C3.92766 43.3629 4.89683 42.8449 5.93288 42.2865C6.96893 41.7282 8.54742 41.45 10.6684 41.4522C13.7999 41.4522 15.8433 41.9829 16.7987 43.0444C17.754 44.106 19.2402 44.6367 21.2571 44.6367Z" fill="#FF7D43"/>
<path d="M21.2571 58.6309C23.274 58.6309 24.7601 58.1001 25.7155 57.0386C26.6709 55.9771 28.7143 55.4463 31.8458 55.4463C34.8712 55.4463 36.9284 55.9771 38.0175 57.0386C39.1067 58.1001 40.6055 58.6309 42.5142 58.6309C44.5311 58.6309 46.0172 58.1001 46.9726 57.0386C47.9279 55.9771 49.9714 55.4463 53.1029 55.4463C55.1729 55.4463 56.7121 55.7255 57.7205 56.2838C58.729 56.8422 59.6844 57.3592 60.5867 57.8347C61.3828 58.2593 62.0993 58.8039 62.7363 59.4684C63.3732 60.1329 63.6916 60.9153 63.6916 61.8155C63.6916 62.7156 63.3732 63.4587 62.7363 64.0447C62.0993 64.6306 61.3563 64.8164 60.507 64.602C58.8086 64.1774 57.5348 63.6073 56.6855 62.8918C55.8363 62.1764 54.6421 61.8176 53.1029 61.8155C51.1391 61.8155 49.6529 62.3462 48.6445 63.4078C47.636 64.4693 45.5926 65 42.5142 65C39.4357 65 37.3796 64.4693 36.3456 63.4078C35.3117 62.3462 33.8118 61.8155 31.8458 61.8155C29.8289 61.8155 28.3428 62.3462 27.3874 63.4078C26.432 64.4693 24.3886 65 21.2571 65C18.1256 65 16.0821 64.4693 15.1268 63.4078C14.1714 62.3462 12.6853 61.8155 10.6684 61.8155C9.12914 61.8155 7.93492 62.1743 7.0857 62.8918C6.23648 63.6094 4.96265 64.1795 3.26421 64.602C2.41498 64.8143 1.65918 64.6285 0.996785 64.0447C0.334392 63.4608 0.00213403 62.7178 1.09813e-05 61.8155C-0.00211207 60.9132 0.303608 60.1308 0.917171 59.4684C1.53073 58.806 2.23346 58.2615 3.02536 57.8347C3.92766 57.357 4.89683 56.839 5.93288 56.2807C6.96893 55.7223 8.54742 55.4442 10.6684 55.4463C13.7999 55.4463 15.8433 55.9771 16.7987 57.0386C17.754 58.1001 19.2402 58.6309 21.2571 58.6309Z" fill="#FF7D43"/>
<path d="M72.1143 33.5869L79.4102 40.8896L80.8223 42.3037L79.4092 43.7178L66.6289 56.5029L79.4141 69.29L80.8291 70.7061L79.4131 72.1201L72.1045 79.415L70.6895 80.8271L69.2773 79.4141L56.4971 66.6289L43.7178 79.4141L42.3047 80.8281L40.8896 79.415L33.5859 72.1162L32.1709 70.7021L33.5859 69.2881L46.3652 56.5029L33.5859 43.7178L32.1719 42.3037L33.585 40.8896L40.8838 33.5859L42.2979 32.1709L56.4971 46.3701L69.2852 33.5859L70.7002 32.1709L72.1143 33.5869Z" fill="#F24091" stroke="white" stroke-width="4"/>
</svg>
