<svg width="96" height="96" viewBox="0 0 96 96" fill="none" xmlns="http://www.w3.org/2000/svg">
<rect width="96" height="96" rx="20" fill="#F469A8"/>
<path d="M37.1938 65.8751C34.1063 65.8751 32.0208 65.3334 30.9375 64.2501C29.8542 63.1668 28.3375 62.6251 26.3875 62.6251C24.8708 62.6251 23.6521 62.9913 22.7313 63.7236C21.8104 64.4559 20.4833 65.0366 18.75 65.4656C17.8833 65.6823 17.125 65.4927 16.475 64.8968C15.825 64.301 15.5 63.5427 15.5 62.6218C15.5 61.701 15.825 60.9026 16.475 60.2266C17.125 59.5506 17.8563 58.9948 18.6688 58.5593C19.5896 58.0718 20.5646 57.5432 21.5938 56.9733C22.6229 56.4035 24.1938 56.1197 26.3063 56.1218C26.6313 56.1218 26.9563 56.1359 27.2813 56.1641C27.6063 56.1923 27.9042 56.2323 28.175 56.2843L25.0875 44.9093L22.5688 48.1593C22.0271 48.8635 21.3229 49.2828 20.4563 49.4171C19.5896 49.5514 18.8042 49.3218 18.1 48.7281C17.3417 48.1323 16.9213 47.3869 16.839 46.4921C16.7567 45.5973 17.0145 44.7988 17.6125 44.0968L37.7625 19.1531C38.6833 18.0698 39.8208 17.3515 41.175 16.9983C42.5292 16.6452 43.8563 16.7134 45.1563 17.2031L75.2188 28.6593C76.0313 28.9843 76.6271 29.5531 77.0063 30.3656C77.3854 31.1781 77.4125 31.9906 77.0875 32.8031C76.7625 33.6698 76.1808 34.2797 75.3423 34.6328C74.5038 34.986 73.6501 34.999 72.7813 34.6718L69.0438 33.1281L75.625 57.5876C75.95 57.7501 76.2609 57.9126 76.5578 58.0751C76.8546 58.2376 77.1395 58.4001 77.4125 58.5626C78.225 58.9959 78.9422 59.5517 79.564 60.2298C80.1858 60.908 80.4978 61.7064 80.5 62.6251C80.5022 63.5438 80.1772 64.3021 79.525 64.9001C78.8728 65.4981 78.1145 65.6877 77.25 65.4688C75.5167 65.0355 74.2167 64.4538 73.35 63.7236C72.4833 62.9934 71.2646 62.6273 69.6938 62.6251C67.6354 62.6251 66.1188 63.1668 65.1438 64.2501C64.1688 65.3334 62.0833 65.8751 58.8875 65.8751C55.8 65.8751 53.7016 65.3334 52.5923 64.2501C51.4829 63.1668 49.9522 62.6251 48 62.6251C45.9417 62.6251 44.425 63.1668 43.45 64.2501C42.475 65.3334 40.3896 65.8751 37.1938 65.8751ZM37.1938 74.0001C39.2521 74.0001 40.7688 73.4584 41.7438 72.3751C42.7188 71.2918 44.8042 70.7501 48 70.7501C51.0875 70.7501 53.187 71.2918 54.2985 72.3751C55.41 73.4584 56.9397 74.0001 58.8875 74.0001C60.9458 74.0001 62.4625 73.4584 63.4375 72.3751C64.4125 71.2918 66.4979 70.7501 69.6938 70.7501C71.8063 70.7501 73.3771 71.035 74.4063 71.6048C75.4354 72.1747 76.4104 72.7023 77.3313 73.1876C78.1438 73.6209 78.875 74.1767 79.525 74.8548C80.175 75.533 80.5 76.3314 80.5 77.2501C80.5 78.1688 80.175 78.9271 79.525 79.5251C78.875 80.1231 78.1167 80.3127 77.25 80.0938C75.5167 79.6605 74.2167 79.0788 73.35 78.3486C72.4833 77.6184 71.2646 77.2523 69.6938 77.2501C67.6896 77.2501 66.1729 77.7918 65.1438 78.8751C64.1146 79.9584 62.0292 80.5001 58.8875 80.5001C55.7458 80.5001 53.6474 79.9584 52.5923 78.8751C51.5371 77.7918 50.0063 77.2501 48 77.2501C45.9417 77.2501 44.425 77.7918 43.45 78.8751C42.475 79.9584 40.3896 80.5001 37.1938 80.5001C33.9979 80.5001 31.9125 79.9584 30.9375 78.8751C29.9625 77.7918 28.4458 77.2501 26.3875 77.2501C24.8167 77.2501 23.5979 77.6163 22.7313 78.3486C21.8646 79.0809 20.5646 79.6627 18.8313 80.0938C17.9646 80.3105 17.1933 80.1209 16.5173 79.5251C15.8413 78.9293 15.5022 78.1709 15.5 77.2501C15.4978 76.3293 15.8098 75.5308 16.436 74.8548C17.0622 74.1788 17.7793 73.6231 18.5875 73.1876C19.5083 72.7001 20.4974 72.1714 21.5548 71.6016C22.6121 71.0318 24.223 70.7479 26.3875 70.7501C29.5833 70.7501 31.6688 71.2918 32.6438 72.3751C33.6188 73.4584 35.1354 74.0001 37.1938 74.0001ZM59.2125 59.2938L55.0688 43.6126C54.9604 43.1793 54.7167 42.8543 54.3375 42.6376C53.9583 42.4209 53.5521 42.3668 53.1188 42.4751L43.6125 44.9938C43.1792 45.1022 42.8542 45.3459 42.6375 45.7251C42.4208 46.1043 42.3667 46.5105 42.475 46.9438L45.075 56.4501C45.5083 56.3418 45.9558 56.2605 46.4173 56.2063C46.8788 56.1522 47.4063 56.1251 48 56.1251C51.0875 56.1251 53.2953 56.7209 54.6235 57.9126C55.9517 59.1043 57.4813 59.5647 59.2125 59.2938Z" fill="white"/>
</svg>
