<svg width="66" height="65" viewBox="0 0 66 65" fill="none" xmlns="http://www.w3.org/2000/svg">
<path d="M22.1938 49.8751C19.1063 49.8751 17.0208 49.3334 15.9375 48.2501C14.8542 47.1668 13.3375 46.6251 11.3875 46.6251C9.87084 46.6251 8.65209 46.9913 7.73126 47.7236C6.81043 48.4559 5.48334 49.0366 3.75001 49.4656C2.88334 49.6823 2.12501 49.4927 1.47501 48.8968C0.825011 48.301 0.500011 47.5427 0.500011 46.6218C0.500011 45.701 0.825011 44.9026 1.47501 44.2266C2.12501 43.5506 2.85626 42.9948 3.66876 42.5593C4.58959 42.0718 5.56459 41.5432 6.59376 40.9733C7.62293 40.4035 9.19376 40.1197 11.3063 40.1218C11.6313 40.1218 11.9563 40.1359 12.2813 40.1641C12.6063 40.1923 12.9042 40.2323 13.175 40.2843L10.0875 28.9093L7.56876 32.1593C7.02709 32.8635 6.32293 33.2828 5.45626 33.4171C4.58959 33.5514 3.80418 33.3218 3.10001 32.7281C2.34168 32.1323 1.92134 31.3869 1.83901 30.4921C1.75668 29.5973 2.01451 28.7988 2.61251 28.0968L22.7625 3.1531C23.6833 2.06976 24.8208 1.35151 26.175 0.998345C27.5292 0.645178 28.8563 0.713428 30.1563 1.20309L60.2188 12.6593C61.0313 12.9843 61.6271 13.5531 62.0063 14.3656C62.3854 15.1781 62.4125 15.9906 62.0875 16.8031C61.7625 17.6698 61.1808 18.2797 60.3423 18.6328C59.5038 18.986 58.6501 18.999 57.7813 18.6718L54.0438 17.1281L60.625 41.5876C60.95 41.7501 61.2609 41.9126 61.5578 42.0751C61.8546 42.2376 62.1395 42.4001 62.4125 42.5626C63.225 42.9959 63.9422 43.5517 64.564 44.2298C65.1858 44.908 65.4978 45.7064 65.5 46.6251C65.5022 47.5438 65.1772 48.3021 64.525 48.9001C63.8728 49.4981 63.1145 49.6877 62.25 49.4688C60.5167 49.0355 59.2167 48.4538 58.35 47.7236C57.4833 46.9934 56.2646 46.6273 54.6938 46.6251C52.6354 46.6251 51.1188 47.1668 50.1438 48.2501C49.1688 49.3334 47.0833 49.8751 43.8875 49.8751C40.8 49.8751 38.7016 49.3334 37.5923 48.2501C36.4829 47.1668 34.9522 46.6251 33 46.6251C30.9417 46.6251 29.425 47.1668 28.45 48.2501C27.475 49.3334 25.3896 49.8751 22.1938 49.8751ZM22.1938 58.0001C24.2521 58.0001 25.7688 57.4584 26.7438 56.3751C27.7188 55.2918 29.8042 54.7501 33 54.7501C36.0875 54.7501 38.187 55.2918 39.2985 56.3751C40.41 57.4584 41.9397 58.0001 43.8875 58.0001C45.9458 58.0001 47.4625 57.4584 48.4375 56.3751C49.4125 55.2918 51.4979 54.7501 54.6938 54.7501C56.8063 54.7501 58.3771 55.035 59.4063 55.6048C60.4354 56.1747 61.4104 56.7023 62.3313 57.1876C63.1438 57.6209 63.875 58.1767 64.525 58.8548C65.175 59.533 65.5 60.3314 65.5 61.2501C65.5 62.1688 65.175 62.9271 64.525 63.5251C63.875 64.1231 63.1167 64.3127 62.25 64.0938C60.5167 63.6605 59.2167 63.0788 58.35 62.3486C57.4833 61.6184 56.2646 61.2523 54.6938 61.2501C52.6896 61.2501 51.1729 61.7918 50.1438 62.8751C49.1146 63.9584 47.0292 64.5001 43.8875 64.5001C40.7458 64.5001 38.6474 63.9584 37.5923 62.8751C36.5371 61.7918 35.0063 61.2501 33 61.2501C30.9417 61.2501 29.425 61.7918 28.45 62.8751C27.475 63.9584 25.3896 64.5001 22.1938 64.5001C18.9979 64.5001 16.9125 63.9584 15.9375 62.8751C14.9625 61.7918 13.4458 61.2501 11.3875 61.2501C9.81668 61.2501 8.59793 61.6163 7.73126 62.3486C6.86459 63.0809 5.56459 63.6627 3.83126 64.0938C2.96459 64.3105 2.19326 64.1209 1.51726 63.5251C0.841261 62.9293 0.502178 62.1709 0.500011 61.2501C0.497845 60.3293 0.809845 59.5308 1.43601 58.8548C2.06218 58.1788 2.77934 57.6231 3.58751 57.1876C4.50834 56.7001 5.49743 56.1714 6.55476 55.6016C7.61209 55.0318 9.22301 54.7479 11.3875 54.7501C14.5833 54.7501 16.6688 55.2918 17.6438 56.3751C18.6188 57.4584 20.1354 58.0001 22.1938 58.0001ZM44.2125 43.2938L40.0688 27.6126C39.9604 27.1793 39.7167 26.8543 39.3375 26.6376C38.9583 26.4209 38.5521 26.3668 38.1188 26.4751L28.6125 28.9938C28.1792 29.1022 27.8542 29.3459 27.6375 29.7251C27.4208 30.1043 27.3667 30.5105 27.475 30.9438L30.075 40.4501C30.5083 40.3418 30.9558 40.2605 31.4173 40.2063C31.8788 40.1522 32.4063 40.1251 33 40.1251C36.0875 40.1251 38.2953 40.7209 39.6235 41.9126C40.9517 43.1043 42.4813 43.5647 44.2125 43.2938Z" fill="white"/>
</svg>
