<svg width="66" height="66" viewBox="0 0 66 66" fill="none" xmlns="http://www.w3.org/2000/svg">
<path d="M2.56037 52.2335C2.78754 53.213 3.26748 54.1158 3.95234 54.852C4.63721 55.5882 5.50307 56.132 6.46362 56.4293L7.04862 59H6.99987V65.5H58.9999V59H15.7196C15.7648 58.6998 15.7571 58.394 15.6969 58.0965L15.0599 55.2918L48.7201 47.6348L49.3571 50.4395C49.5268 51.1836 49.985 51.8299 50.631 52.2364C51.2769 52.6429 52.0579 52.7763 52.8021 52.6073L55.6069 51.967C55.9755 51.8834 56.3241 51.7279 56.6326 51.5094C56.9411 51.291 57.2036 51.0138 57.4049 50.6939C57.6062 50.3739 57.7425 50.0174 57.806 49.6447C57.8694 49.2721 57.8587 48.8906 57.7746 48.522L56.9589 44.9373C58.4084 43.5853 59.1364 41.5378 58.6651 39.4675L56.7476 31.05C56.5149 30.0359 56.0101 29.1045 55.2874 28.356C54.5646 27.6075 53.6515 27.0703 52.6461 26.8023L45.9869 15.8238C45.0063 14.2093 43.5428 12.9442 41.8035 12.2076C40.0642 11.4709 38.1372 11.3 36.2954 11.719L10.7244 17.5365C8.88082 17.9546 7.21566 18.9425 5.96498 20.36C4.71431 21.7775 3.94158 23.5527 3.75637 25.434L2.49862 38.213C1.70974 38.8904 1.12042 39.7699 0.794021 40.7572C0.46762 41.7444 0.416487 42.8019 0.646122 43.816L2.56037 52.2335ZM12.3754 49.9975C11.8229 50.1234 11.251 50.1393 10.6924 50.0442C10.1338 49.9491 9.59937 49.7448 9.11967 49.4432C8.63998 49.1416 8.22439 48.7484 7.89664 48.2861C7.56889 47.8239 7.3354 47.3016 7.2095 46.7491C7.08359 46.1966 7.06774 45.6248 7.16285 45.0662C7.25795 44.5075 7.46216 43.9731 7.7638 43.4934C8.06543 43.0137 8.4586 42.5982 8.92085 42.2704C9.3831 41.9427 9.90539 41.7092 10.4579 41.5833C11.5737 41.329 12.7448 41.5284 13.7136 42.1376C14.6824 42.7467 15.3695 43.7158 15.6237 44.8316C15.878 45.9474 15.6786 47.1185 15.0694 48.0873C14.4603 49.0561 13.4912 49.7432 12.3754 49.9975ZM48.8469 41.7035C48.2849 41.858 47.6975 41.897 47.1201 41.8183C46.5427 41.7396 45.9871 41.5448 45.487 41.2456C44.9869 40.9464 44.5526 40.549 44.2102 40.0774C43.8678 39.6058 43.6245 39.0697 43.495 38.5016C43.3654 37.9334 43.3522 37.3448 43.4562 36.7714C43.5603 36.198 43.7794 35.6516 44.1003 35.1651C44.4212 34.6787 44.8373 34.2622 45.3236 33.941C45.8098 33.6197 46.356 33.4002 46.9294 33.2958C48.0232 33.0965 49.1516 33.327 50.0797 33.9393C51.0077 34.5515 51.6637 35.4982 51.9109 36.5822C52.1581 37.6661 51.9775 38.8037 51.4067 39.7578C50.8358 40.7118 49.9189 41.4088 48.8469 41.7035ZM12.1641 23.874L37.7384 18.0533C38.2508 17.936 38.7872 17.983 39.2714 18.1878C39.7556 18.3926 40.1631 18.7446 40.4359 19.194L45.5871 27.6863L43.7476 28.1055L11.0981 35.5383L9.25212 35.9575L10.2239 26.071C10.2752 25.5473 10.4904 25.0531 10.8387 24.6587C11.187 24.2643 11.6508 23.9897 12.1641 23.874ZM53.8161 7L49.2499 0.5L47.6249 10.25L55.7499 23.25L65.4999 26.5L58.9999 18.2483L65.4999 15.216L58.9999 12.1838L65.4999 0.5L53.8161 7Z" fill="white"/>
</svg>
