<svg width="78" height="78" viewBox="0 0 78 78" fill="none" xmlns="http://www.w3.org/2000/svg">
<path d="M39 16.25C32.6625 16.25 27.287 18.4578 22.8735 22.8735C18.46 27.2892 16.2522 32.6647 16.25 39C16.25 42.9 17.1307 46.475 18.8922 49.725C20.6537 52.975 23.023 55.6292 26 57.6875V52C26 51.0792 26.312 50.3078 26.936 49.686C27.56 49.0642 28.3313 48.7522 29.25 48.75C30.1687 48.7478 30.9411 49.0598 31.5672 49.686C32.1934 50.3122 32.5043 51.0835 32.5 52V65C32.5 65.9208 32.188 66.6932 31.564 67.3172C30.94 67.9412 30.1687 68.2522 29.25 68.25H16.25C15.3292 68.25 14.5578 67.938 13.936 67.314C13.3142 66.69 13.0022 65.9187 13 65C12.9978 64.0813 13.3098 63.31 13.936 62.686C14.5622 62.062 15.3335 61.75 16.25 61.75H20.6375C17.2792 59.0417 14.625 55.7245 12.675 51.7985C10.725 47.8725 9.75 43.6063 9.75 39C9.75 34.9375 10.5224 31.1328 12.0672 27.586C13.6121 24.0392 15.6964 20.9517 18.3202 18.3235C20.9441 15.6953 24.0316 13.6099 27.5827 12.0673C31.1339 10.5246 34.9397 9.75217 39 9.75C45.1208 9.75 50.6328 11.4562 55.536 14.8687C60.4392 18.2812 63.973 22.6688 66.1375 28.0312C66.4625 28.8979 66.4625 29.7375 66.1375 30.55C65.8125 31.3625 65.2167 31.9312 64.35 32.2563C63.4833 32.5813 62.6297 32.5813 61.789 32.2563C60.9483 31.9312 60.3666 31.3354 60.0437 30.4688C58.3646 26.2437 55.6422 22.8182 51.8765 20.1922C48.1108 17.5662 43.8187 16.2522 39 16.25Z" fill="white"/>
<path d="M56.5 72.625C58.6176 72.625 60.7144 72.2079 62.6708 71.3976C64.6271 70.5872 66.4048 69.3994 67.9021 67.9021C69.3994 66.4048 70.5872 64.6271 71.3976 62.6708C72.2079 60.7144 72.625 58.6176 72.625 56.5C72.625 54.3824 72.2079 52.2856 71.3976 50.3292C70.5872 48.3729 69.3994 46.5952 67.9021 45.0979C66.4048 43.6006 64.6271 42.4128 62.6708 41.6024C60.7144 40.7921 58.6176 40.375 56.5 40.375C52.2234 40.375 48.1219 42.0739 45.0979 45.0979C42.0739 48.1219 40.375 52.2234 40.375 56.5C40.375 60.7766 42.0739 64.8781 45.0979 67.9021C48.1219 70.9261 52.2234 72.625 56.5 72.625ZM56.5 75.3125C51.5106 75.3125 46.7256 73.3305 43.1976 69.8024C39.6695 66.2744 37.6875 61.4894 37.6875 56.5C37.6875 51.5106 39.6695 46.7256 43.1976 43.1976C46.7256 39.6695 51.5106 37.6875 56.5 37.6875C61.4894 37.6875 66.2744 39.6695 69.8024 43.1976C73.3305 46.7256 75.3125 51.5106 75.3125 56.5C75.3125 61.4894 73.3305 66.2744 69.8024 69.8024C66.2744 73.3305 61.4894 75.3125 56.5 75.3125Z" fill="white"/>
<path d="M43.0625 56.5C43.0625 52.9362 44.4782 49.5183 46.9983 46.9983C49.5183 44.4782 52.9362 43.0625 56.5 43.0625C60.0638 43.0625 63.4817 44.4782 66.0017 46.9983C68.5218 49.5183 69.9375 52.9362 69.9375 56.5C69.9375 56.8564 69.7959 57.1982 69.5439 57.4502C69.2919 57.7022 68.9501 57.8438 68.5938 57.8438C68.2374 57.8438 67.8956 57.7022 67.6436 57.4502C67.3916 57.1982 67.25 56.8564 67.25 56.5C67.25 53.6489 66.1174 50.9146 64.1014 48.8986C62.0854 46.8826 59.3511 45.75 56.5 45.75C53.6489 45.75 50.9146 46.8826 48.8986 48.8986C46.8826 50.9146 45.75 53.6489 45.75 56.5C45.75 56.8564 45.6084 57.1982 45.3564 57.4502C45.1044 57.7022 44.7626 57.8438 44.4062 57.8438C44.0499 57.8438 43.7081 57.7022 43.4561 57.4502C43.2041 57.1982 43.0625 56.8564 43.0625 56.5Z" fill="white"/>
<path d="M58.9529 61.3643C59.707 61.9436 60.232 62.7708 60.4352 63.6998C60.6384 64.6287 60.5067 65.5996 60.0633 66.4408C59.6199 67.2821 58.8934 67.9395 58.0122 68.2969C57.131 68.6543 56.1518 68.6886 55.2477 68.3939C54.3436 68.0992 53.5728 67.4944 53.0715 66.6863C52.5702 65.8783 52.3707 64.919 52.5082 63.9781C52.6458 63.0372 53.1115 62.1751 53.8231 61.5444C54.5347 60.9136 55.4464 60.5547 56.3971 60.5312L58.9582 52.646C59.0113 52.4764 59.0975 52.3191 59.2118 52.183C59.3261 52.047 59.4662 51.9349 59.6241 51.8534C59.782 51.7719 59.9545 51.7225 60.1316 51.708C60.3087 51.6936 60.4869 51.7145 60.6559 51.7694C60.8249 51.8243 60.9813 51.9122 61.1161 52.0279C61.2509 52.1437 61.3614 52.2851 61.4412 52.4438C61.5211 52.6026 61.5686 52.7756 61.5811 52.9529C61.5936 53.1301 61.5708 53.3081 61.5141 53.4765L58.9529 61.3616V61.3643ZM56.0826 65.8417C56.2506 65.8964 56.4277 65.9174 56.6039 65.9037C56.78 65.8899 56.9517 65.8416 57.1092 65.7615C57.2667 65.6814 57.4068 65.5711 57.5216 65.4368C57.6365 65.3025 57.7237 65.147 57.7784 64.979C57.8331 64.811 57.8542 64.6339 57.8405 64.4577C57.8267 64.2816 57.7784 64.1099 57.6983 63.9524C57.6182 63.7949 57.5079 63.6548 57.3736 63.5399C57.2393 63.4251 57.0837 63.3379 56.9157 63.2832C56.5765 63.1727 56.2072 63.2015 55.8892 63.3633C55.5711 63.5251 55.3304 63.8066 55.2199 64.1458C55.1095 64.4851 55.1383 64.8544 55.3001 65.1724C55.4618 65.4904 55.7433 65.7312 56.0826 65.8417Z" fill="white"/>
</svg>
