<svg width="96" height="96" viewBox="0 0 96 96" fill="none" xmlns="http://www.w3.org/2000/svg">
<rect width="96" height="96" rx="20" fill="#30B6ED"/>
<path d="M48 25.25C41.6625 25.25 36.287 27.4578 31.8735 31.8735C27.46 36.2892 25.2522 41.6647 25.25 48C25.25 51.9 26.1307 55.475 27.8922 58.725C29.6537 61.975 32.023 64.6292 35 66.6875V61C35 60.0792 35.312 59.3078 35.936 58.686C36.56 58.0642 37.3313 57.7522 38.25 57.75C39.1687 57.7478 39.9411 58.0598 40.5672 58.686C41.1934 59.3122 41.5043 60.0835 41.5 61V74C41.5 74.9208 41.188 75.6932 40.564 76.3172C39.94 76.9412 39.1687 77.2522 38.25 77.25H25.25C24.3292 77.25 23.5578 76.938 22.936 76.314C22.3142 75.69 22.0022 74.9187 22 74C21.9978 73.0813 22.3098 72.31 22.936 71.686C23.5622 71.062 24.3335 70.75 25.25 70.75H29.6375C26.2792 68.0417 23.625 64.7245 21.675 60.7985C19.725 56.8725 18.75 52.6063 18.75 48C18.75 43.9375 19.5224 40.1328 21.0672 36.586C22.6121 33.0392 24.6964 29.9517 27.3202 27.3235C29.9441 24.6953 33.0316 22.6099 36.5827 21.0673C40.1339 19.5246 43.9397 18.7522 48 18.75C54.1208 18.75 59.6328 20.4562 64.536 23.8687C69.4392 27.2812 72.973 31.6688 75.1375 37.0312C75.4625 37.8979 75.4625 38.7375 75.1375 39.55C74.8125 40.3625 74.2167 40.9312 73.35 41.2563C72.4833 41.5813 71.6297 41.5813 70.789 41.2563C69.9483 40.9312 69.3666 40.3354 69.0437 39.4688C67.3646 35.2437 64.6422 31.8182 60.8765 29.1922C57.1108 26.5662 52.8187 25.2522 48 25.25Z" fill="white"/>
<path d="M65.5 81.625C67.6176 81.625 69.7144 81.2079 71.6708 80.3976C73.6271 79.5872 75.4048 78.3994 76.9021 76.9021C78.3994 75.4048 79.5872 73.6271 80.3976 71.6708C81.2079 69.7144 81.625 67.6176 81.625 65.5C81.625 63.3824 81.2079 61.2856 80.3976 59.3292C79.5872 57.3729 78.3994 55.5952 76.9021 54.0979C75.4048 52.6006 73.6271 51.4128 71.6708 50.6024C69.7144 49.7921 67.6176 49.375 65.5 49.375C61.2234 49.375 57.1219 51.0739 54.0979 54.0979C51.0739 57.1219 49.375 61.2234 49.375 65.5C49.375 69.7766 51.0739 73.8781 54.0979 76.9021C57.1219 79.9261 61.2234 81.625 65.5 81.625ZM65.5 84.3125C60.5106 84.3125 55.7256 82.3305 52.1976 78.8024C48.6695 75.2744 46.6875 70.4894 46.6875 65.5C46.6875 60.5106 48.6695 55.7256 52.1976 52.1976C55.7256 48.6695 60.5106 46.6875 65.5 46.6875C70.4894 46.6875 75.2744 48.6695 78.8024 52.1976C82.3305 55.7256 84.3125 60.5106 84.3125 65.5C84.3125 70.4894 82.3305 75.2744 78.8024 78.8024C75.2744 82.3305 70.4894 84.3125 65.5 84.3125Z" fill="white"/>
<path d="M52.0625 65.5C52.0625 61.9362 53.4782 58.5183 55.9983 55.9983C58.5183 53.4782 61.9362 52.0625 65.5 52.0625C69.0638 52.0625 72.4817 53.4782 75.0017 55.9983C77.5218 58.5183 78.9375 61.9362 78.9375 65.5C78.9375 65.8564 78.7959 66.1982 78.5439 66.4502C78.2919 66.7022 77.9501 66.8438 77.5938 66.8438C77.2374 66.8438 76.8956 66.7022 76.6436 66.4502C76.3916 66.1982 76.25 65.8564 76.25 65.5C76.25 62.6489 75.1174 59.9146 73.1014 57.8986C71.0854 55.8826 68.3511 54.75 65.5 54.75C62.6489 54.75 59.9146 55.8826 57.8986 57.8986C55.8826 59.9146 54.75 62.6489 54.75 65.5C54.75 65.8564 54.6084 66.1982 54.3564 66.4502C54.1044 66.7022 53.7626 66.8438 53.4062 66.8438C53.0499 66.8438 52.7081 66.7022 52.4561 66.4502C52.2041 66.1982 52.0625 65.8564 52.0625 65.5Z" fill="white"/>
<path d="M67.9529 70.3643C68.707 70.9436 69.232 71.7708 69.4352 72.6998C69.6384 73.6287 69.5067 74.5996 69.0633 75.4408C68.6199 76.2821 67.8934 76.9395 67.0122 77.2969C66.131 77.6543 65.1518 77.6886 64.2477 77.3939C63.3436 77.0992 62.5728 76.4944 62.0715 75.6863C61.5702 74.8783 61.3707 73.919 61.5082 72.9781C61.6458 72.0372 62.1115 71.1751 62.8231 70.5444C63.5347 69.9136 64.4464 69.5547 65.3971 69.5312L67.9582 61.646C68.0113 61.4764 68.0975 61.3191 68.2118 61.183C68.3261 61.047 68.4662 60.9349 68.6241 60.8534C68.782 60.7719 68.9545 60.7225 69.1316 60.708C69.3087 60.6936 69.4869 60.7145 69.6559 60.7694C69.8249 60.8243 69.9813 60.9122 70.1161 61.0279C70.2509 61.1437 70.3614 61.2851 70.4412 61.4438C70.5211 61.6026 70.5686 61.7756 70.5811 61.9529C70.5936 62.1301 70.5708 62.3081 70.5141 62.4765L67.9529 70.3616V70.3643ZM65.0826 74.8417C65.2506 74.8964 65.4277 74.9174 65.6039 74.9037C65.78 74.8899 65.9517 74.8416 66.1092 74.7615C66.2667 74.6814 66.4068 74.5711 66.5216 74.4368C66.6365 74.3025 66.7237 74.147 66.7784 73.979C66.8331 73.811 66.8542 73.6339 66.8405 73.4577C66.8267 73.2816 66.7784 73.1099 66.6983 72.9524C66.6182 72.7949 66.5079 72.6548 66.3736 72.5399C66.2393 72.4251 66.0837 72.3379 65.9157 72.2832C65.5765 72.1727 65.2072 72.2015 64.8892 72.3633C64.5711 72.5251 64.3304 72.8066 64.2199 73.1458C64.1095 73.4851 64.1383 73.8544 64.3001 74.1724C64.4618 74.4904 64.7433 74.7312 65.0826 74.8417Z" fill="white"/>
</svg>
