<svg width="90" height="85" viewBox="0 0 90 85" fill="none" xmlns="http://www.w3.org/2000/svg">
<path d="M40.2977 3.46945C40.7275 3.33633 41.1885 3.34411 41.6136 3.49166C42.0386 3.6392 42.4053 3.91879 42.6602 4.28958L50.7264 16.0194L60.7907 8.83064C61.1508 8.57366 61.5827 8.43643 62.0251 8.43836C62.4675 8.4403 62.8981 8.58129 63.256 8.84141C63.6139 9.10152 63.881 9.46758 64.0194 9.8878C64.1578 10.308 64.1606 10.7611 64.0273 11.183L59.8322 24.4687H70.4533C70.8557 24.4686 71.2498 24.5836 71.5889 24.8002C71.9281 25.0168 72.1982 25.3258 72.3675 25.6909C72.5367 26.056 72.598 26.4619 72.5441 26.8607C72.4902 27.2595 72.3233 27.6345 72.0632 27.9416L64.2433 37.184L75.0771 45.1271C75.4357 45.3901 75.7021 45.7598 75.838 46.1832C75.974 46.6067 75.9726 47.0623 75.8341 47.485C75.6956 47.9076 75.427 48.2757 75.0668 48.5366C74.7066 48.7974 74.2731 48.9377 73.8283 48.9375H61.1721C60.6126 48.9375 60.0761 48.7152 59.6805 48.3196C59.2849 47.924 59.0627 47.3875 59.0627 46.8281C59.0627 46.2686 59.2849 45.7321 59.6805 45.3365C60.0761 44.9409 60.6126 44.7187 61.1721 44.7187H67.3854L59.925 39.2478C59.6918 39.0767 59.4962 38.8595 59.3506 38.6096C59.2049 38.3597 59.1121 38.0825 59.0781 37.7953C59.0441 37.508 59.0695 37.2168 59.1528 36.9398C59.236 36.6628 59.3754 36.4059 59.5622 36.185L65.9055 28.6875H56.9533C56.622 28.6874 56.2953 28.6093 55.9998 28.4595C55.7043 28.3097 55.4482 28.0924 55.2523 27.8252C55.0564 27.558 54.9262 27.2484 54.8723 26.9215C54.8183 26.5946 54.8421 26.2596 54.9418 25.9436L58.1025 15.935L51.4301 20.7005C51.2021 20.8635 50.9439 20.9794 50.6706 21.0414C50.3972 21.1035 50.1143 21.1104 49.8382 21.0619C49.5622 21.0133 49.2986 20.9102 49.0629 20.7587C48.8271 20.6071 48.6239 20.4101 48.4652 20.1791L43.0314 12.2765V23.2031C43.0314 23.7625 42.8092 24.299 42.4136 24.6946C42.018 25.0902 41.4815 25.3125 40.9221 25.3125C40.3626 25.3125 39.8261 25.0902 39.4305 24.6946C39.0349 24.299 38.8127 23.7625 38.8127 23.2031V5.48433C38.8127 4.56126 39.4134 3.74451 40.2977 3.46945ZM10.7681 45.9978L11.0432 44.7187H8.85956C8.30011 44.7187 7.76359 44.4965 7.368 44.1009C6.97242 43.7053 6.75018 43.1688 6.75018 42.6093C6.75018 42.0499 6.97242 41.5134 7.368 41.1178C7.76359 40.7222 8.30011 40.5 8.85956 40.5H11.9578L12.8184 36.5175C13.2465 34.5387 14.3393 32.7663 15.915 31.4952C17.4907 30.2241 19.4542 29.5309 21.4787 29.5312H40.9592C42.9837 29.5309 44.9472 30.2241 46.5229 31.4952C48.0986 32.7663 49.1914 34.5387 49.6194 36.5175L50.4969 40.5725C50.6724 40.5253 50.8558 40.5011 51.0471 40.5H53.5783C54.1377 40.5 54.6743 40.7222 55.0699 41.1178C55.4654 41.5134 55.6877 42.0499 55.6877 42.6093C55.6877 43.1688 55.4654 43.7053 55.0699 44.1009C54.6743 44.4965 54.1377 44.7187 53.5783 44.7187H51.393L51.6681 45.9978C52.8529 46.462 53.8702 47.2727 54.5873 48.3239C55.3043 49.3751 55.6878 50.6181 55.6877 51.8906V67.0781C55.6877 67.1489 55.6843 67.2193 55.6776 67.289C55.6843 67.3588 55.6877 67.4291 55.6877 67.4999V71.2968C55.6877 72.7514 55.1099 74.1463 54.0813 75.1749C53.0528 76.2034 51.6579 76.7812 50.2033 76.7812H45.9846C44.53 76.7812 43.135 76.2034 42.1065 75.1749C41.078 74.1463 40.5002 72.7514 40.5002 71.2968V69.1874H21.9377V71.2968C21.9377 72.7514 21.3599 74.1463 20.3313 75.1749C19.3028 76.2034 17.9079 76.7812 16.4533 76.7812H12.2346C10.78 76.7812 9.38504 76.2034 8.35652 75.1749C7.328 74.1463 6.75018 72.7514 6.75018 71.2968V67.4999C6.75018 67.4291 6.75356 67.3588 6.76031 67.289C6.75253 67.219 6.74915 67.1485 6.75018 67.0781V51.8906C6.75004 50.6181 7.13353 49.3751 7.8506 48.3239C8.56767 47.2727 9.58331 46.462 10.7681 45.9978ZM16.9427 37.4085L15.1792 45.5625H47.2586L45.4952 37.4118C45.2715 36.375 44.6993 35.446 43.8739 34.7797C43.0486 34.1134 42.0199 33.75 40.9592 33.75H21.4787C20.4182 33.7499 19.3897 34.1131 18.5644 34.7791C17.7391 35.445 17.1667 36.3736 16.9427 37.4101M44.7189 71.2968C44.7189 71.9954 45.2859 72.5624 45.9846 72.5624H50.2033C50.539 72.5624 50.8609 72.4291 51.0982 72.1918C51.3356 71.9544 51.4689 71.6325 51.4689 71.2968V69.1874H44.7189V71.2968ZM17.7189 69.1874H10.9689V71.2968C10.9689 71.9954 11.5359 72.5624 12.2346 72.5624H16.4533C16.789 72.5624 17.1109 72.4291 17.3482 72.1918C17.5856 71.9544 17.7189 71.6325 17.7189 71.2968V69.1874ZM18.5627 59.0625C19.4578 59.0625 20.3162 58.7069 20.9492 58.0739C21.5821 57.441 21.9377 56.5826 21.9377 55.6875C21.9377 54.7923 21.5821 53.9339 20.9492 53.301C20.3162 52.668 19.4578 52.3125 18.5627 52.3125C17.6676 52.3125 16.8091 52.668 16.1762 53.301C15.5433 53.9339 15.1877 54.7923 15.1877 55.6875C15.1877 56.5826 15.5433 57.441 16.1762 58.0739C16.8091 58.7069 17.6676 59.0625 18.5627 59.0625ZM47.2502 55.6875C47.2502 54.7923 46.8946 53.9339 46.2617 53.301C45.6287 52.668 44.7703 52.3125 43.8752 52.3125C42.9801 52.3125 42.1216 52.668 41.4887 53.301C40.8558 53.9339 40.5002 54.7923 40.5002 55.6875C40.5002 56.5826 40.8558 57.441 41.4887 58.0739C42.1216 58.7069 42.9801 59.0625 43.8752 59.0625C44.7703 59.0625 45.6287 58.7069 46.2617 58.0739C46.8946 57.441 47.2502 56.5826 47.2502 55.6875ZM27.4221 57.375C26.8626 57.375 26.3261 57.5972 25.9305 57.9928C25.5349 58.3884 25.3127 58.9249 25.3127 59.4843C25.3127 60.0438 25.5349 60.5803 25.9305 60.9759C26.3261 61.3715 26.8626 61.5937 27.4221 61.5937H35.0158C35.5752 61.5937 36.1118 61.3715 36.5074 60.9759C36.9029 60.5803 37.1252 60.0438 37.1252 59.4843C37.1252 58.9249 36.9029 58.3884 36.5074 57.9928C36.1118 57.5972 35.5752 57.375 35.0158 57.375H27.4221Z" fill="#FF7D43"/>
<path d="M78.9756 42.5791L85.4082 48.9531L86.8418 50.374L85.4082 51.7949L56.5215 80.4209L55.1133 81.8154L53.7061 80.4209L39.5918 66.4346L38.1582 65.0137L39.5918 63.5928L46.0244 57.2188L47.4336 55.8223L48.8418 57.2207L55.1143 63.4561L76.1592 42.5801L77.5674 41.1836L78.9756 42.5791Z" fill="#6CC854" stroke="white" stroke-width="4"/>
</svg>
